<svg xmlns="http://www.w3.org/2000/svg" viewBox="0 0 800 600" width="800" height="600" font-family="'Malgun Gothic','Apple SD Gothic Neo',sans-serif">
<defs>
<linearGradient id="bg" x1="0" y1="0" x2="0" y2="1"><stop offset="0" stop-color="#86C6D4"/><stop offset="1" stop-color="#2E7E8E"/></linearGradient>
<radialGradient id="glow" cx="50%" cy="36%" r="62%"><stop offset="0" stop-color="#ffffff" stop-opacity="0.30"/><stop offset="1" stop-color="#ffffff" stop-opacity="0"/></radialGradient>
<linearGradient id="gold" x1="0" y1="0" x2="1" y2="1"><stop offset="0" stop-color="#F6CD52"/><stop offset="1" stop-color="#D9982A"/></linearGradient>
</defs>
<rect width="800" height="600" fill="url(#bg)"/>
<rect width="800" height="600" fill="url(#glow)"/>
<path d="M0 470 Q 400 408 800 470 L800 600 L0 600 Z" fill="#1E5A66" opacity="0.85"/>
<g transform="translate(400,300)"><path d="M-150 0 C -90 -92 112 -92 162 0 C 112 92 -90 92 -150 0 Z" fill="#5AA6B6"/><path d="M-150 0 L-214 -56 L-202 0 L-214 56 Z" fill="#3E8A9A"/><path d="M24 -62 q42 -30 72 -10 q-30 22 -72 10Z" fill="#3E8A9A"/><path d="M60 -52 q-20 52 0 104" stroke="#3E8A9A" stroke-width="6" fill="none"/><circle cx="112" cy="-14" r="15" fill="#fff"/><circle cx="115" cy="-14" r="7" fill="#16261C"/></g>
<g><path d="M0 56 H 276 L254 84 L276 112 H0 Z" fill="#294A36"/><text x="22" y="95" fill="#F6F1E4" font-size="30" font-weight="700">강원 산지직송</text></g>
<g transform="translate(656,128)"><circle r="82" fill="url(#gold)" stroke="#ffffff" stroke-width="5"/><text x="0" y="-18" text-anchor="middle" fill="#7A4A12" font-size="26" font-weight="700">특가</text><text x="0" y="22" text-anchor="middle" fill="#5A3408" font-size="44" font-weight="800">28,900</text><text x="0" y="50" text-anchor="middle" fill="#5A3408" font-size="22" font-weight="600">원</text></g>
<rect x="0" y="508" width="800" height="92" fill="#16261C" opacity="0.82"/>
<text x="40" y="566" fill="#F6F1E4" font-size="38" font-weight="700">강릉 황태 1kg</text>
<text x="760" y="565" text-anchor="end" fill="#F6CD52" font-size="24" font-weight="600">강원 · 강릉</text>
</svg>