<svg xmlns="http://www.w3.org/2000/svg" viewBox="0 0 800 600" width="800" height="600" font-family="'Malgun Gothic','Apple SD Gothic Neo',sans-serif">
<defs>
<linearGradient id="bg" x1="0" y1="0" x2="0" y2="1"><stop offset="0" stop-color="#A6D886"/><stop offset="1" stop-color="#4E8A3E"/></linearGradient>
<radialGradient id="glow" cx="50%" cy="36%" r="62%"><stop offset="0" stop-color="#ffffff" stop-opacity="0.30"/><stop offset="1" stop-color="#ffffff" stop-opacity="0"/></radialGradient>
<linearGradient id="gold" x1="0" y1="0" x2="1" y2="1"><stop offset="0" stop-color="#F6CD52"/><stop offset="1" stop-color="#D9982A"/></linearGradient>
</defs>
<rect width="800" height="600" fill="url(#bg)"/>
<rect width="800" height="600" fill="url(#glow)"/>
<path d="M0 470 Q 400 408 800 470 L800 600 L0 600 Z" fill="#356E2C" opacity="0.85"/>
<g transform="translate(400,300)"><path d="M0 120 C -120 60 -120 -90 -10 -120 C -30 -40 -30 40 0 120Z" fill="#4E8A3E"/><path d="M0 120 C 120 60 120 -90 10 -120 C 30 -40 30 40 0 120Z" fill="#5E9A48"/><path d="M0 120 C -42 30 -42 -110 0 -142 C 42 -110 42 30 0 120Z" fill="#86C45E"/><line x1="0" y1="110" x2="0" y2="-124" stroke="#356E2C" stroke-width="6"/></g>
<g><path d="M0 56 H 276 L254 84 L276 112 H0 Z" fill="#294A36"/><text x="22" y="95" fill="#F6F1E4" font-size="30" font-weight="700">강원 산지직송</text></g>
<g transform="translate(656,128)"><circle r="82" fill="url(#gold)" stroke="#ffffff" stroke-width="5"/><text x="0" y="-18" text-anchor="middle" fill="#7A4A12" font-size="26" font-weight="700">특가</text><text x="0" y="22" text-anchor="middle" fill="#5A3408" font-size="44" font-weight="800">16,900</text><text x="0" y="50" text-anchor="middle" fill="#5A3408" font-size="22" font-weight="600">원</text></g>
<rect x="0" y="508" width="800" height="92" fill="#16261C" opacity="0.82"/>
<text x="40" y="566" fill="#F6F1E4" font-size="38" font-weight="700">평창 산나물 모듬 1kg</text>
<text x="760" y="565" text-anchor="end" fill="#F6CD52" font-size="24" font-weight="600">강원 · 평창</text>
</svg>